<?xml version="1.0" encoding="UTF-8"?>
<svg width="1200pt" height="1200pt" version="1.1" viewBox="0 0 1200 1200" xmlns="http://www.w3.org/2000/svg">
 <path d="m945.11 31.578 144.36 126.32c63.156 49.625 67.668 139.85 18.047 203.01l-681.2 807.52-333.84 31.578-31.578-338.35 681.2-812.03c49.625-58.648 139.85-67.668 203.01-18.047zm-766.92 816.54 243.61 203.01 509.77-609.02-243.61-203.01zm171.43 248.12-203.01-171.43 18.047 184.96 184.96-13.535zm685.71-879.7-144.36-121.8c-27.066-22.555-67.668-18.047-90.227 9.0234l-58.648 72.18 243.61 203.01 58.648-72.18c22.555-27.066 18.047-67.668-9.0234-90.227z" fill="#9b9b9b"/>
</svg>
