<?xml version="1.0" encoding="UTF-8"?>
<svg width="1200pt" height="1200pt" version="1.1" viewBox="0 0 1200 1200" xmlns="http://www.w3.org/2000/svg">
 <defs>
  <clipPath id="a">
   <path d="m222.14 222.14h755.71v755.71h-755.71z"/>
  </clipPath>
 </defs>
 <g clip-path="url(#a)">
  <path d="m324.58 235.46 5.9805 5.2852 269.44 269.45 269.45-269.45c24.801-24.801 65.012-24.801 89.812 0 22.895 22.895 24.656 58.918 5.2812 83.832l-5.2812 5.9805-269.45 269.44 269.45 269.45c24.801 24.801 24.801 65.012 0 89.812-22.895 22.895-58.918 24.656-83.832 5.2812l-5.9805-5.2812-269.45-269.45-269.44 269.45c-24.801 24.801-65.012 24.801-89.812 0-22.895-22.895-24.656-58.918-5.2852-83.832l5.2852-5.9805 269.45-269.45-269.45-269.44c-24.801-24.801-24.801-65.012 0-89.812 22.895-22.895 58.918-24.656 83.832-5.2852z" fill="#9b9b9b"/>
 </g>
</svg>
